<svg xmlns="http://www.w3.org/2000/svg" viewBox="0 0 64 56"><defs><style>.cls-1{fill:#37474f;}.cls-2{fill:#cfd8dd;}.cls-3{fill:#00cde2;}.cls-4{fill:#b0bec5;}</style></defs><title>Computer</title><g id="Layer_2" data-name="Layer 2"><g id="Layer_1-2" data-name="Layer 1"><path class="cls-1" d="M3,0H61a3,3,0,0,1,3,3V40a0,0,0,0,1,0,0H0a0,0,0,0,1,0,0V3A3,3,0,0,1,3,0Z"/><path class="cls-2" d="M0,40H64a0,0,0,0,1,0,0v5a3,3,0,0,1-3,3H3a3,3,0,0,1-3-3V40A0,0,0,0,1,0,40Z"/><rect class="cls-3" x="4" y="4" width="56" height="32"/><path class="cls-4" d="M32,56H19.16A1.16,1.16,0,0,1,18,54.84h0a1.16,1.16,0,0,1,.79-1.1l1-.32A10.8,10.8,0,0,0,26,48h6Z"/><path class="cls-4" d="M32,56H44.84A1.16,1.16,0,0,0,46,54.84h0a1.16,1.16,0,0,0-.79-1.1l-2-.67A10.8,10.8,0,0,1,38,49.3L37,48H32Z"/><circle class="cls-4" cx="32" cy="44" r="2"/></g></g></svg>